<svg xmlns="http://www.w3.org/2000/svg" width="74" height="18" fill="none" viewBox="0 0 74 18"><path fill="#000" fill-rule="evenodd" d="m28.814 12.941-1.01 4.698h-2.325L29.319.613h2.753l3.613 17.026h-2.35l-.985-4.698zm3.258-1.895L31.29 6.98c-.227-1.163-.455-2.678-.631-3.89h-.102c-.176 1.237-.43 2.803-.656 3.89l-.808 4.067zM44.557.158v14.324c0 .935.05 2.3.1 3.158h-2.045l-.152-1.49h-.076c-.404.858-1.339 1.692-2.576 1.692-2.274 0-3.664-2.476-3.664-6.29 0-4.345 1.844-6.392 3.79-6.392.985 0 1.768.456 2.198 1.39h.05V.158zm-2.375 9.878c0-.227 0-.505-.026-.758-.126-1.112-.758-2.072-1.616-2.072-1.491 0-1.996 2.072-1.996 4.346 0 2.526.657 4.294 1.92 4.294.53 0 1.238-.278 1.642-1.743a3.6 3.6 0 0 0 .076-.782zm8.031 7.806c-2.45 0-4.219-2.097-4.219-6.315 0-4.472 2.097-6.367 4.345-6.367 2.425 0 4.168 2.173 4.168 6.316 0 4.876-2.4 6.366-4.269 6.366zm.076-1.87c1.465 0 1.793-2.601 1.793-4.47 0-1.845-.328-4.472-1.843-4.472-1.567 0-1.87 2.627-1.87 4.472 0 2.045.354 4.47 1.895 4.47zM55.939.159h2.374v6.594h.05c.632-1.112 1.491-1.592 2.578-1.592 2.096 0 3.41 2.375 3.41 6.14 0 4.394-1.793 6.542-3.815 6.542-1.212 0-1.894-.657-2.425-1.744h-.1l-.127 1.541h-2.046c.05-.833.1-2.222.1-3.158zm2.374 13.136c0 .279.026.557.101.758.379 1.491 1.112 1.794 1.591 1.794 1.415 0 1.946-1.869 1.946-4.395 0-2.35-.556-4.245-1.97-4.245-.784 0-1.416.935-1.592 1.82-.05.252-.076.58-.076.833zm9.542-1.313c.026 3.158 1.39 3.94 2.83 3.94.858 0 1.591-.201 2.122-.454l.353 1.718c-.732.379-1.844.581-2.93.581-3.082 0-4.699-2.324-4.699-6.114 0-4.017 1.844-6.492 4.395-6.492 2.552 0 3.74 2.45 3.74 5.533 0 .606-.026.985-.051 1.313zm3.562-1.692c.025-2.173-.733-3.335-1.667-3.335-1.238 0-1.794 1.794-1.87 3.335z" clip-rule="evenodd"/><path fill="#cc2131" fill-rule="evenodd" d="M12.096.658h7.093V17.64zm-4.997 0H0V17.64zm2.499 6.258 4.52 10.724h-2.962l-1.352-3.416H6.496z" clip-rule="evenodd"/><path fill="#000" fill-rule="evenodd" d="M73.463 5.129a.54.54 0 0 1 .537.546.54.54 0 0 1-.54.548.54.54 0 0 1-.54-.548.54.54 0 0 1 .54-.546zm-.002.084a.45.45 0 0 0-.437.462c0 .26.197.463.44.463.242.003.436-.203.436-.46 0-.258-.194-.465-.437-.465zm-.102.78h-.097v-.61c.051-.007.1-.014.173-.014.092 0 .152.02.189.046q.056.039.056.126c0 .08-.054.13-.12.148v.005q.082.015.103.148a.5.5 0 0 0 .039.151H73.6a.5.5 0 0 1-.041-.155c-.015-.078-.054-.107-.132-.107h-.068zm0-.338h.07c.08 0 .149-.029.149-.104 0-.054-.04-.107-.149-.107a1 1 0 0 0-.07.005zM20.124.658a.54.54 0 0 1 .537.546.54.54 0 0 1-.54.549.54.54 0 0 1-.54-.549.543.543 0 0 1 .54-.546zm-.002.085a.45.45 0 0 0-.437.461c0 .26.196.464.44.464.242.002.436-.204.436-.461a.45.45 0 0 0-.437-.464zm-.102.78h-.097v-.61q.085-.015.172-.014c.092 0 .153.019.19.046q.055.039.055.126c0 .08-.053.129-.119.148v.005q.083.014.102.148c.015.095.03.131.04.151h-.103a.4.4 0 0 1-.041-.155c-.015-.078-.053-.107-.131-.107h-.068zm0-.338h.07c.08 0 .148-.03.148-.104 0-.054-.038-.107-.148-.107a1 1 0 0 0-.07.005z" clip-rule="evenodd"/></svg>