<svg xmlns="http://www.w3.org/2000/svg" width="42" height="24" fill="none" viewBox="0 0 42 24"><path fill="#252f3e" d="M12.243 8.716c0 .494.053.895.147 1.188.107.294.24.614.427.961a.6.6 0 0 1 .093.307c0 .134-.08.267-.253.4l-.841.561a.64.64 0 0 1-.347.12c-.134 0-.267-.066-.4-.186a4 4 0 0 1-.481-.628c-.134-.227-.267-.48-.414-.787q-1.562 1.842-3.925 1.842c-1.12 0-2.015-.32-2.67-.961-.653-.641-.987-1.495-.987-2.563 0-1.135.4-2.056 1.215-2.75.814-.694 1.895-1.04 3.27-1.04.454 0 .921.04 1.415.106.494.067 1.001.173 1.535.294v-.975c0-1.014-.213-1.722-.627-2.136-.427-.413-1.148-.614-2.176-.614-.467 0-.948.054-1.442.174s-.974.267-1.441.454a4 4 0 0 1-.468.173.8.8 0 0 1-.213.04c-.187 0-.28-.133-.28-.413v-.655c0-.213.026-.373.093-.467.067-.093.187-.187.374-.28q.7-.36 1.682-.6A8 8 0 0 1 7.61.026c1.589 0 2.75.36 3.497 1.08.734.722 1.108 1.816 1.108 3.285v4.324zm-5.42 2.03c.441 0 .895-.08 1.375-.241s.908-.454 1.268-.854c.214-.254.374-.534.454-.855s.134-.707.134-1.16v-.562c-.387-.093-.801-.173-1.228-.226a10 10 0 0 0-1.255-.08c-.894 0-1.548.173-1.989.533-.44.36-.654.868-.654 1.535 0 .628.16 1.095.494 1.415.32.334.787.494 1.401.494m10.72 1.44c-.24 0-.401-.04-.508-.133-.107-.08-.2-.267-.28-.52L13.618 1.215c-.08-.267-.12-.44-.12-.534 0-.214.107-.334.32-.334h1.308c.254 0 .427.04.52.134.108.08.188.266.268.52l2.242 8.837L20.24 1c.066-.267.147-.44.253-.52s.294-.134.534-.134h1.068c.254 0 .427.04.534.134.107.08.2.266.254.52l2.109 8.943 2.31-8.943c.08-.267.173-.44.266-.52.107-.08.28-.134.52-.134h1.242c.214 0 .334.107.334.334 0 .066-.014.133-.027.213s-.04.187-.093.334l-3.217 10.318q-.12.4-.28.52c-.107.08-.28.134-.508.134H24.39c-.253 0-.427-.04-.534-.133-.107-.094-.2-.267-.253-.534l-2.07-8.61-2.055 8.596c-.067.267-.147.44-.254.534s-.293.134-.534.134zm17.152.361c-.694 0-1.388-.08-2.055-.24s-1.188-.334-1.535-.534c-.214-.12-.36-.254-.414-.374a.9.9 0 0 1-.08-.373v-.681c0-.28.106-.414.307-.414q.12 0 .24.04c.08.027.2.08.334.133.453.2.947.36 1.468.468.534.107 1.054.16 1.588.16.841 0 1.495-.147 1.95-.44.453-.294.694-.721.694-1.269a1.3 1.3 0 0 0-.36-.934c-.241-.254-.695-.48-1.35-.694l-1.935-.6c-.974-.308-1.695-.762-2.135-1.362-.44-.588-.668-1.242-.668-1.936q0-.84.36-1.481c.24-.428.561-.801.962-1.095.4-.307.854-.534 1.388-.694A5.8 5.8 0 0 1 35.136 0c.293 0 .6.013.894.053.307.04.587.094.868.147.267.067.52.134.76.214q.361.12.561.24c.187.107.32.214.4.334q.12.16.12.44v.628c0 .28-.106.427-.306.427-.107 0-.28-.054-.507-.16q-1.142-.52-2.563-.521c-.761 0-1.362.12-1.776.374-.413.253-.627.64-.627 1.188 0 .373.133.694.4.947.267.254.761.508 1.469.735l1.895.6c.961.307 1.656.734 2.07 1.282a3.02 3.02 0 0 1 .613 1.868c0 .574-.12 1.095-.347 1.549a3.6 3.6 0 0 1-.974 1.174c-.414.334-.908.574-1.482.748-.6.187-1.228.28-1.909.28"/><path fill="#f90" fill-rule="evenodd" d="M37.218 19.035C32.827 22.278 26.446 24 20.96 24c-7.69 0-14.617-2.843-19.85-7.568-.413-.374-.04-.881.454-.587 5.66 3.283 12.641 5.272 19.863 5.272 4.872 0 10.225-1.014 15.15-3.097.735-.333 1.362.48.641 1.015" clip-rule="evenodd"/><path fill="#f90" fill-rule="evenodd" d="M39.047 16.952c-.561-.721-3.711-.347-5.14-.174-.426.054-.493-.32-.106-.6 2.51-1.762 6.634-1.255 7.114-.668.48.6-.133 4.725-2.482 6.7-.36.308-.708.148-.548-.253.534-1.321 1.722-4.298 1.162-5.005" clip-rule="evenodd"/></svg>