<svg xmlns="http://www.w3.org/2000/svg" width="72" height="20" fill="none" viewBox="0 0 72 20"><path fill="#f3ba2f" d="M20.09 2.588h3.313c.841 0 1.457.227 1.855.616.39.335.561.787.561 1.23 0 .173 0 .39-.054.562a2.3 2.3 0 0 1-.507.787 1.2 1.2 0 0 1-.335.226c.39.109.733.335 1.014.616.226.28.334.615.334 1.122 0 .28-.054.615-.172.841-.108.227-.334.453-.56.616-.281.172-.562.28-.842.389-.335.109-.733.109-1.122.109h-3.43V2.57h-.055zm3.032 2.914c.28 0 .561-.054.842-.172a.61.61 0 0 0 .335-.56c0-.227-.109-.453-.28-.562-.227-.172-.508-.226-.788-.172h-1.575v1.512h1.457v-.046zm.39 2.87c.28 0 .56-.055.84-.173.227-.108.336-.335.282-.615 0-.226-.11-.453-.281-.561s-.507-.226-.896-.226h-1.855V8.37zM28.226 2.588h1.575v7.185h-1.575zM32.217 2.588h1.457l3.367 4.434V2.588h1.565v7.185h-1.339l-3.539-4.552v4.552h-1.51zM43.385 2.534h1.457l3.086 7.24h-1.63l-.67-1.629h-3.03l-.67 1.629h-1.63zm1.683 4.263-.95-2.353-.95 2.353zM49.61 2.588h1.458l3.366 4.434V2.588h1.575v7.185h-1.348l-3.485-4.552v4.552h-1.565zM61.729 9.882a4.1 4.1 0 0 1-1.457-.28 3.72 3.72 0 0 1-1.964-1.964 4.1 4.1 0 0 1-.28-1.457c0-.95.388-1.91 1.067-2.634a3.45 3.45 0 0 1 1.177-.787c.506-.226 1.013-.28 1.51-.28.281 0 .616 0 .897.054.28.054.507.108.733.226.226.109.452.226.615.335.172.108.39.28.561.452l-.95 1.177c-.28-.226-.561-.453-.842-.616s-.615-.226-.95-.226q-.42-.002-.841.172-.423.165-.67.507c-.163.226-.335.452-.453.733a2.3 2.3 0 0 0-.171.842c0 .28.054.615.171.896.118.28.227.506.453.733.389.452.95.67 1.511.67.335 0 .733-.055 1.068-.227.28-.172.615-.39.842-.615l1.004 1.004-.56.561c-.227.172-.453.28-.67.39a3.4 3.4 0 0 1-.788.28c-.398.054-.733.054-1.014.054M66.561 2.588h5.385V3.99h-3.874v1.457h3.421V6.85h-3.42v1.52H72v1.403h-5.439zM22.109 16.842c-.39 0-.788-.054-1.123-.226-.334-.109-.67-.335-1.013-.615l.561-.616c.226.226.452.335.733.507.28.109.561.172.842.172.226 0 .452-.054.67-.172.171-.109.226-.28.226-.452 0-.055 0-.172-.055-.227-.054-.054-.108-.172-.172-.226-.108-.054-.226-.109-.334-.172-.172-.054-.39-.108-.562-.172-.226-.054-.506-.109-.733-.226a1.5 1.5 0 0 1-.506-.28c-.109-.11-.227-.227-.335-.39-.109-.226-.109-.452-.109-.615 0-.226.054-.39.109-.616.054-.171.226-.334.335-.452.171-.109.334-.226.56-.28s.453-.11.67-.11c.335 0 .67.055 1.014.173.28.108.561.28.841.452l-.452.67c-.226-.172-.453-.28-.67-.39-.226-.108-.452-.108-.67-.108-.226 0-.452.054-.615.172-.108.109-.226.28-.226.453 0 .108 0 .172.054.28.055.055.109.172.172.226.109.055.226.109.39.172.171.055.334.109.615.172.226.055.452.109.733.226.172.055.335.172.507.281.108.109.226.28.28.39.055.171.109.334.109.56s-.054.453-.109.616a3 3 0 0 1-.389.507c-.172.108-.335.226-.561.28-.28-.018-.561.036-.787.036M24.914 11.738h.96l1.51 2.353 1.575-2.353h.95v5.05h-.895v-3.647l-1.575 2.353h-.054l-1.566-2.353v3.647h-.905zM32.941 11.683h.842l2.19 5.05h-.95l-.507-1.231h-2.353l-.507 1.23h-.896zm1.294 3.086-.896-2.018-.841 2.018zM36.869 11.738h2.244c.28 0 .561.055.842.109.226.054.452.226.615.389.109.109.226.28.335.507.054.172.108.389.108.615 0 .172-.054.39-.108.561s-.172.28-.226.453a2.5 2.5 0 0 1-.39.335 2 2 0 0 1-.506.226l1.348 1.91h-1.068l-1.23-1.738H37.71v1.737h-.896zm2.19 2.47c.28 0 .56-.053.733-.225a.89.89 0 0 0 .28-.616.87.87 0 0 0-.28-.615c-.226-.172-.507-.226-.788-.226H37.71v1.683zM43.321 12.526h-1.629v-.788h4.1v.788h-1.63v4.262h-.895zM51.24 16.841c-.335 0-.67-.054-1.014-.226-.615-.28-1.122-.733-1.348-1.348-.109-.335-.226-.67-.172-1.014 0-.335.054-.67.172-1.014.226-.615.733-1.122 1.348-1.402.335-.109.67-.227 1.068-.227.226 0 .453 0 .616.055a11 11 0 0 1 .506.172c.172.054.28.172.453.226.108.108.28.226.389.335l-.561.67a2.6 2.6 0 0 0-.616-.453 1.9 1.9 0 0 0-.787-.172c-.226 0-.452.054-.67.109-.226.108-.389.226-.56.389-.173.172-.281.334-.336.56s-.108.453-.108.67c0 .227.054.453.108.67.055.217.172.39.335.561.172.172.335.28.561.39.227.108.453.171.67.108.28 0 .561-.054.787-.172.227-.109.453-.28.67-.507l.561.561-.389.39c-.172.108-.28.226-.452.28s-.335.172-.561.172c-.227.217-.453.217-.67.217M54.208 11.738h.842v2.073h2.416v-2.073h.896v5.05h-.896v-2.136H55.05v2.136h-.842zM61.448 11.683h.842l2.19 5.05h-.95l-.507-1.231H60.67l-.507 1.23h-.896zm1.24 3.086-.842-2.018-.841 2.018zM65.376 11.738h.904v5.05h-.904zM67.62 11.738h.787l2.697 3.475v-3.475H72v5.05h-.733l-2.742-3.593v3.593h-.905zM10.217 16.453v2.19l-1.91 1.122-1.855-1.122v-2.19l1.856 1.122zM0 8.878 1.855 10v3.756l3.195 1.91v2.19L0 14.877zm16.615 0v6.009l-5.104 2.977v-2.19l3.195-1.91V10.01zM11.502 5.9l1.91 1.122v2.19l-3.195 1.91v3.81l-1.855 1.121-1.846-1.122v-3.819l-3.312-1.91v-2.19l1.91-1.122 3.194 1.91zm-8.298 4.877L5.059 11.9v2.19l-1.855-1.122zm10.208 0v2.19l-1.855 1.123V11.9zM1.855 3.991l1.91 1.122-1.91 1.122v2.19L0 7.303v-2.19zm12.905 0 1.91 1.122v2.19l-1.91 1.122v-2.19l-1.855-1.122zm-6.452 0 1.91 1.122-1.91 1.122-1.856-1.122zm0-3.756 5.104 2.978-1.855 1.122-3.195-1.91-3.258 1.91L3.25 3.213z"/></svg>