<svg xmlns="http://www.w3.org/2000/svg" width="80" height="24" fill="none" viewBox="0 0 80 24"><path fill="#f39321" d="M23.636 14.903c-1.604 6.428-8.114 10.34-14.542 8.738C2.668 22.038-1.246 15.525.36 9.099 1.96 2.669 8.471-1.242 14.9.359 21.328 1.961 25.24 8.471 23.638 14.9z"/><path fill="#fff" d="M17.287 10.29c.24-1.597-.976-2.457-2.638-3.03l.538-2.161-1.316-.328-.524 2.104a59 59 0 0 0-1.054-.248l.53-2.12-1.316-.33-.539 2.163c-.287-.067-.567-.13-.841-.199v-.007L8.312 5.68 7.96 7.087s.976.224.955.238c.534.132.63.485.614.766l-.614 2.465q.056.013.137.043l-.14-.034-.861 3.452c-.066.162-.23.406-.604.313.013.018-.956-.24-.956-.24l-.654 1.508 1.712.426c.32.08.632.164.94.242l-.545 2.187 1.315.328.539-2.164q.538.145 1.049.274l-.539 2.155 1.316.328.545-2.185c2.244.424 3.934.253 4.643-1.776.572-1.635-.027-2.58-1.209-3.193.86-.198 1.508-.763 1.681-1.933zm-3.007 4.218c-.406 1.635-3.161.752-4.053.529l.723-2.899c.892.224 3.754.664 3.33 2.37m.408-4.242c-.372 1.487-2.664.732-3.405.545l.655-2.629c.743.185 3.137.531 2.75 2.082z"/><path fill="#4e4e4e" d="M34.098 9.235q.84 0 1.45.302.611.303 1.015.815.401.514.594 1.206.19.692.191 1.488.001 1.223-.445 2.313a6 6 0 0 1-1.215 1.897q-.77.804-1.817 1.274a5.5 5.5 0 0 1-2.27.47q-.158 0-.553-.008a8 8 0 0 1-.899-.079q-.543-.077-1.074-.214-.559-.135-1.075-.39l3.023-12.883L33.732 5l-1.083 4.571q.34-.155.698-.247.37-.09.75-.09m-2.272 7.584q.611 0 1.154-.3c.363-.201.68-.476.935-.806a4 4 0 0 0 .62-1.145c.152-.427.228-.876.227-1.329q0-.849-.28-1.329-.28-.478-1.031-.479c-.164 0-.375.032-.636.088q-.395.09-.71.373l-1.152 4.854q.103.018.183.036.078.017.164.027.089.01.212.01zm8.332 1.932H37.57l2.185-9.32h2.605zm1.258-10.454a1.6 1.6 0 0 1-.979-.328Q40 7.646 40 6.969q0-.371.148-.7a1.86 1.86 0 0 1 .96-.949c.218-.094.455-.142.692-.14q.54 0 .978.327.436.33.437 1.001c.001.243-.05.48-.149.702a1.84 1.84 0 0 1-.959.947 1.7 1.7 0 0 1-.69.14m3.21-1.187 2.71-.426-.666 2.748h2.901l-.523 2.16h-2.885l-.767 3.26q-.107.407-.122.76-.019.356.087.613.103.257.375.397.269.144.778.144.42 0 .813-.08a6 6 0 0 0 .794-.22l.193 2.02a9 9 0 0 1-1.136.336c-.408.096-.892.14-1.451.14q-1.205 0-1.87-.361-.666-.363-.944-.994-.278-.627-.244-1.444a9.5 9.5 0 0 1 .244-1.718zm4.831 7.92q0-1.205.385-2.268.384-1.064 1.102-1.862a5.2 5.2 0 0 1 1.74-1.257q1.02-.46 2.28-.46.787 0 1.406.152c.415.1.788.232 1.128.397l-.892 2.057a8 8 0 0 0-.726-.257 3.1 3.1 0 0 0-.917-.115q-1.294 0-2.053.903-.76.903-.761 2.428 0 .904.385 1.462.385.559 1.415.558.508 0 .979-.107.472-.106.84-.266l.193 2.109a9 9 0 0 1-1.084.346 6 6 0 0 1-1.416.149q-1.085 0-1.835-.318a3.5 3.5 0 0 1-1.24-.86 3.25 3.25 0 0 1-.708-1.268 5.3 5.3 0 0 1-.22-1.523m11.49 3.967q-.926 0-1.609-.284a2.96 2.96 0 0 1-1.126-.797 3.5 3.5 0 0 1-.673-1.214 5 5 0 0 1-.226-1.548q0-1.065.34-2.128a6 6 0 0 1 1.005-1.913 5.4 5.4 0 0 1 1.625-1.393q.96-.54 2.2-.54.91 0 1.601.285.688.284 1.137.797.444.513.67 1.214.227.7.227 1.55 0 1.063-.33 2.128a6.2 6.2 0 0 1-.98 1.913 5.1 5.1 0 0 1-1.616 1.39q-.97.54-2.245.54m1.292-7.582q-.576 0-1.013.336a2.9 2.9 0 0 0-.733.851q-.298.515-.448 1.125-.149.613-.148 1.16.001.887.28 1.384.28.495 1.014.495a1.6 1.6 0 0 0 1.014-.338 2.9 2.9 0 0 0 .734-.85q.297-.513.447-1.125.146-.611.147-1.16 0-.885-.28-1.383-.281-.495-1.015-.495zm6.698 7.336h-2.59l2.186-9.32h2.604zm1.257-10.454a1.6 1.6 0 0 1-.978-.328q-.437-.324-.438-1.001 0-.371.148-.7c.095-.213.229-.405.394-.567.165-.16.358-.289.568-.382.218-.094.453-.142.69-.14q.542 0 .978.327.437.33.438 1.001-.002.373-.15.702-.146.328-.392.566a1.9 1.9 0 0 1-.567.38 1.7 1.7 0 0 1-.691.142m2.808 1.559q.296-.089.654-.205a9.636 9.636 0 0 1 1.802-.373c.365-.042.784-.062 1.247-.062q2.046 0 2.824 1.206.777 1.205.272 3.295l-1.19 5.032h-2.604l1.153-4.927q.105-.46.167-.895a2.1 2.1 0 0 0-.01-.761.9.9 0 0 0-.322-.533q-.255-.203-.778-.203a5 5 0 0 0-1.03.108l-1.695 7.21h-2.605l2.115-8.893z"/></svg>