<svg xmlns="http://www.w3.org/2000/svg" width="72" height="22" fill="none" viewBox="0 0 72 22"><path fill="#000" d="M0 5.542A4.595 4.595 0 0 1 4.594.947h10.917a4.595 4.595 0 0 1 4.595 4.595v10.917a4.595 4.595 0 0 1-4.595 4.594H4.595A4.595 4.595 0 0 1 0 16.46z"/><path fill="#24cb71" d="M5.34 15.713a2.356 2.356 0 0 1 2.357-2.357h2.356v2.357a2.356 2.356 0 1 1-4.712 0"/><path fill="#ff7237" d="M10.053 3.932v4.712h2.356a2.356 2.356 0 1 0 0-4.712z"/><path fill="#00b6ff" d="M12.39 13.356a2.356 2.356 0 1 0 0-4.712 2.356 2.356 0 0 0 0 4.712"/><path fill="#ff3737" d="M5.34 6.288a2.356 2.356 0 0 0 2.357 2.356h2.356V3.932H7.697A2.356 2.356 0 0 0 5.34 6.288"/><path fill="#874fff" d="M5.34 11a2.356 2.356 0 0 0 2.357 2.356h2.356V8.644H7.697A2.356 2.356 0 0 0 5.34 11"/><path fill="#000" d="M67.544 17.933q-.93 0-1.67-.36a3.1 3.1 0 0 1-1.156-.964 2.53 2.53 0 0 1-.417-1.437q0-1.06.683-1.721.682-.662 1.953-.908l2.218-.454q.664-.132.91-.416.247-.284.247-.832l.228 2.213-3.186.68q-.645.133-1.005.473-.341.34-.341.946 0 .624.474 1.002.492.378 1.327.378.682 0 1.252-.302.588-.304.91-.832.34-.549.341-1.249v-3.309q0-.68-.493-1.06-.474-.396-1.308-.396-1.062 0-1.631.53-.569.528-.664 1.493l-1.669-.227q.096-1.002.607-1.72.513-.738 1.366-1.135t2.029-.397q1.668 0 2.56.85.891.853.891 2.194v6.676h-1.65v-1.23q-.247.625-1.005 1.079-.74.435-1.802.435M50.855 17.649V8.212h1.65v1.06q.189-.549.834-.946t1.498-.397q.834 0 1.536.359.702.36.91 1.078.247-.662.91-1.04.684-.397 1.518-.397 1.44 0 2.2.832.758.832.758 2.42v6.468h-1.688v-6.24q0-.946-.417-1.42-.397-.49-1.176-.49-.852 0-1.327.604-.455.587-.455 1.721v5.825h-1.688v-6.24q0-.946-.417-1.42-.399-.49-1.176-.49-.853 0-1.327.604-.456.587-.455 1.721v5.825zM44.401 21.053q-1.763 0-2.863-.813t-1.403-2.27l1.65-.359q.208.927.89 1.438.684.529 1.726.529 1.252 0 1.878-.643.645-.624.644-1.872v-1.494q-.284.699-1.062 1.134a3.37 3.37 0 0 1-1.706.435q-1.252 0-2.2-.567a4 4 0 0 1-1.48-1.626q-.53-1.04-.53-2.402 0-1.38.53-2.42.532-1.041 1.461-1.608.948-.585 2.219-.586.948 0 1.725.435.797.416 1.081 1.04V8.212h1.65v8.85q0 1.249-.493 2.138a3.25 3.25 0 0 1-1.441 1.38q-.93.473-2.276.473m-.038-5.409q1.214 0 1.935-.85.74-.852.74-2.251 0-1.418-.74-2.27-.74-.85-1.935-.85-1.214 0-1.953.85-.72.852-.72 2.27 0 1.4.74 2.25.738.851 1.933.851M36.539 17.638V8.212h1.688v9.437zM36.52 7.002V4.316h1.726v2.686zM26.846 17.649V4.316h1.782V17.65zm.36-5.636v-1.607h7.263v1.607zm0-6.07V4.316h7.964v1.627z"/></svg>