<svg xmlns="http://www.w3.org/2000/svg" width="66" height="20" fill="none" viewBox="0 0 66 20"><path fill="#e5172c" fill-rule="evenodd" d="M14.698 4.055c-1.316 1.092-2.623 2.184-3.94 3.276 0 .01.01.01.01.02 2.062-.377 4.124-.745 6.217-1.122-.766-.725-1.521-1.44-2.287-2.174M9.37 7.147c1.388-1.163 2.777-2.317 4.185-3.49C9.962 2.993 6.39 2.34 2.827 1.677c0 .01-.01.02-.01.03 2.185 1.807 4.369 3.624 6.553 5.44m7.431.215c0-.01-.01-.02-.01-.03-.133.02-.276.05-.409.07-2.123.389-4.246.766-6.369 1.144-.092.02-.122.061-.132.153-.02.245-.051.49-.082.725-.092.796-.194 1.582-.286 2.378-.092.786-.184 1.572-.286 2.368l-.306 2.562c-.01.072-.01.153-.02.225.01 0 .02.01.02.01 2.623-3.205 5.247-6.41 7.88-9.605M2.082 2.442c-.01 0-.02.01-.03.01l5.757 14.484c.03-.02.03-.04.04-.061l.215-1.745c.092-.787.194-1.572.285-2.348.092-.786.184-1.572.286-2.348.092-.735.174-1.47.266-2.205a.2.2 0 0 0-.092-.204C6.879 6.433 4.96 4.83 3.042 3.238c-.327-.265-.643-.53-.96-.796m16.74 4.093c-3.664 4.46-7.308 8.9-10.962 13.361C5.236 13.292 2.623 6.72 0 .104c.235.041.45.082.663.123l4.002.735c1.367.255 2.735.5 4.113.755 1.46.266 2.93.541 4.39.807.57.102 1.132.214 1.704.316.05.01.112.04.153.071a1130 1130 0 0 1 3.623 3.45c.041.062.103.113.174.174" clip-rule="evenodd"/><path fill="#010202" fill-rule="evenodd" d="M49.822 9.27a.74.74 0 0 0-.745.725c0 .418.316.745.734.745a.73.73 0 0 0 .745-.735.73.73 0 0 0-.734-.735m10.268 1.47c-.327-.367-.653-.725-.98-1.092-.01-.02-.03-.03-.061-.051v5.542h1.102v-4.225a.3.3 0 0 0-.061-.174m-32.612 4.39h1.082V7.942h-1.082zm-2 0h1.081V7.942h-1.082zm-2.94-9.157h8.972V4.891h-8.972zm27.284 8.054a4.03 4.03 0 0 1-4.032-4.022 4.03 4.03 0 0 1 4.021-4.022c2.236 0 4.032 1.807 4.032 4.063 0 2.174-1.817 3.98-4.021 3.98m.04-9.146c-2.868 0-5.175 2.276-5.175 5.124 0 2.807 2.297 5.134 5.073 5.134 2.889 0 5.186-2.266 5.186-5.124 0-2.827-2.287-5.134-5.084-5.134m15.036.01v7.982c-.01 0-.02.01-.031.01-2.603-2.898-5.216-5.787-7.829-8.706v10.952h1.092V7.096c2.634 2.93 5.247 5.828 7.87 8.748V4.89zm-24.171 6.084a3.18 3.18 0 0 0 2.021-3.297 3.13 3.13 0 0 0-3.113-2.797h-5.849v10.258h1.082V6.004h4.726c.327 0 .633.061.919.204a2.056 2.056 0 0 1 1.082 2.276c-.225.95-1.021 1.582-1.98 1.582h-3.828v5.073h1.082v-3.95c.06 0 .092-.01.132-.01h2.297c.102 0 .143.03.194.112.663 1.256 1.327 2.511 1.98 3.767.041.071.072.091.153.091h1.072c.03 0 .061-.01.102-.01-.725-1.378-1.45-2.735-2.174-4.103.03-.03.061-.04.102-.061" clip-rule="evenodd"/></svg>