<svg xmlns="http://www.w3.org/2000/svg" width="74" height="24" fill="none" viewBox="0 0 74 24"><path fill="#fff" d="m68.52 7.594-4.01-.931-.717-.287-18.411.143v8.883l23.139.072z"/><path fill="#f48120" d="M60.999 14.614a2.05 2.05 0 0 0-.215-1.862 2.22 2.22 0 0 0-1.505-.789l-12.465-.143c-.071 0-.143-.071-.214-.071a.13.13 0 0 1-.054-.108.13.13 0 0 1 .054-.107c.071-.144.143-.215.286-.215l12.537-.144a4.51 4.51 0 0 0 3.653-2.722l.717-1.862c0-.072.071-.144 0-.215a8.165 8.165 0 0 0-15.689-.86 3.9 3.9 0 0 0-2.579-.716 3.73 3.73 0 0 0-3.295 3.295c-.048.43-.024.867.071 1.29a5.23 5.23 0 0 0-5.086 5.23c-.012.264.012.529.072.787a.23.23 0 0 0 .215.215h22.995c.144 0 .287-.072.287-.215z"/><path fill="#faad3f" d="M64.938 6.59h-.358c-.072 0-.143.072-.215.144l-.501 1.72a2.05 2.05 0 0 0 .215 1.862 2.22 2.22 0 0 0 1.504.788l2.65.143c.072 0 .144.072.216.072a.134.134 0 0 1 0 .215c-.072.143-.144.215-.287.215l-2.722.143a4.51 4.51 0 0 0-3.654 2.722l-.143.645c-.072.072 0 .215.143.215h9.457a.19.19 0 0 0 .214-.215c.171-.607.267-1.232.287-1.863a6.85 6.85 0 0 0-6.806-6.805"/><path fill="#f48120" d="M72.675 19.486a.644.644 0 1 1 0-1.288.644.644 0 0 1 0 1.288m0-1.146a.501.501 0 1 0 .502.501.49.49 0 0 0-.502-.501m.287.86h-.144l-.143-.216h-.143v.215h-.143v-.644h.358a.19.19 0 0 1 .215.215c0 .071-.072.143-.144.214zm-.215-.359c.071 0 .071 0 .071-.072a.07.07 0 0 0-.02-.05.07.07 0 0 0-.051-.021h-.215v.215h.215zm-64.258-.645h1.576v4.299h2.722v1.36H8.489zm5.945 2.794a2.94 2.94 0 0 1 3.08-2.937 2.88 2.88 0 0 1 3.01 2.937 2.943 2.943 0 0 1-3.08 2.937 2.92 2.92 0 0 1-3.01-2.937m4.514 0a1.47 1.47 0 0 0-1.433-1.576 1.506 1.506 0 0 0 0 3.009c.86.143 1.433-.573 1.433-1.433m3.51.358v-3.152h1.576v3.152c0 .788.43 1.218 1.074 1.218a1 1 0 0 0 1.075-1.146v-3.224h1.576v3.152c0 1.863-1.075 2.651-2.65 2.651-1.648-.072-2.651-.86-2.651-2.65m7.665-3.152h2.22c2.006 0 3.224 1.147 3.224 2.794s-1.218 2.866-3.223 2.866h-2.15v-5.66zm2.22 4.227a1.439 1.439 0 1 0 0-2.865H31.7v2.865zm5.445-4.227h4.513v1.361h-2.937v.932h2.65v1.29h-2.65v2.077h-1.576zm6.734 0h1.576v4.299h2.722v1.36h-4.298zm8.381-.071h1.576l2.436 5.73h-1.72l-.429-1.002h-2.22l-.43 1.003h-1.648zm1.433 3.51-.645-1.576-.644 1.576zm4.585-3.439h2.65a2.45 2.45 0 0 1 1.863.645 1.88 1.88 0 0 1-.645 3.009l1.361 2.006h-1.79l-1.147-1.72h-.716v1.72H58.92zM61.5 20.92c.501 0 .86-.287.86-.645 0-.43-.359-.645-.86-.645h-1.003v1.361H61.5zm4.656-2.723h4.585v1.29h-3.009v.86h2.722v1.289h-2.722v.86h3.08v1.36h-4.656zM5.05 21.706a1.42 1.42 0 0 1-1.29.86 1.506 1.506 0 0 1 0-3.008 1.5 1.5 0 0 1 1.362.93h1.647a2.96 2.96 0 0 0-3.008-2.363 2.98 2.98 0 0 0-3.08 2.937 2.92 2.92 0 0 0 3.008 2.937 3.094 3.094 0 0 0 3.009-2.292z"/></svg>