<svg xmlns="http://www.w3.org/2000/svg" width="92" height="24" fill="none" viewBox="0 0 92 24"><path fill="#393430" d="M27.86 14.601c0 .153-.128.277-.283.277h-5.463c.136 1.332 1.152 2.548 2.58 2.548.977 0 1.702-.369 2.248-1.138.079-.106.197-.173.348-.11a.26.26 0 0 1 .154.195c.015.089-.01.139-.035.188-.55.946-1.645 1.41-2.718 1.41-1.838 0-3.148-1.622-3.148-3.36 0-1.736 1.31-3.359 3.148-3.359 1.838-.003 3.166 1.616 3.17 3.35m-.584-.262c-.119-1.332-1.153-2.548-2.581-2.548-1.43 0-2.445 1.216-2.581 2.548zm7.215-2.956c.158 0 .273.135.273.27 0 .156-.119.269-.273.269h-1.465v5.674c0 .135-.118.27-.272.27a.275.275 0 0 1-.273-.27v-5.674h-1.407a.264.264 0 0 1-.273-.27c0-.134.118-.269.273-.269h1.407V9.307c0-.132.09-.252.219-.273.183-.029.326.095.326.265v2.084zm8.935 2.743v3.438c0 .156-.137.27-.273.27a.264.264 0 0 1-.273-.27v-3.438c0-1.158-.664-2.317-1.974-2.317-1.68 0-2.405 1.45-2.308 2.934 0 .039.018.213.018.23v2.58c0 .132-.09.252-.22.273-.182.029-.326-.095-.326-.265V6.269c0-.134.118-.269.273-.269.158 0 .273.135.273.27v6.39c.47-.83 1.31-1.39 2.286-1.39 1.605 0 2.524 1.39 2.524 2.856m9.796.475c0 .153-.129.277-.283.277h-5.467c.136 1.332 1.152 2.548 2.58 2.548.977 0 1.702-.369 2.248-1.138.079-.106.197-.173.348-.11a.26.26 0 0 1 .154.195.27.27 0 0 1-.035.188c-.55.946-1.645 1.41-2.718 1.41-1.838 0-3.148-1.622-3.148-3.36 0-1.736 1.31-3.359 3.148-3.359 1.842-.003 3.17 1.616 3.173 3.35m-.588-.262c-.119-1.332-1.153-2.548-2.581-2.548-1.43 0-2.445 1.216-2.581 2.548zm7.294-2.704c0 .174-.097.27-.255.29-1.605.23-2.326 1.524-2.326 3.03v2.58c0 .132-.09.252-.219.274-.183.028-.327-.096-.327-.266v-5.88c0-.13.09-.251.22-.273.182-.028.326.096.326.266v1.198c.449-.751 1.35-1.467 2.287-1.467.136-.004.294.096.294.248m8.974 2.966c0 .153-.129.277-.283.277h-5.464c.137 1.332 1.153 2.548 2.581 2.548.977 0 1.702-.369 2.247-1.138.08-.106.198-.173.349-.11a.26.26 0 0 1 .154.195.27.27 0 0 1-.036.188c-.55.946-1.644 1.41-2.717 1.41-1.838 0-3.149-1.622-3.149-3.36 0-1.736 1.31-3.359 3.149-3.359 1.838-.003 3.166 1.616 3.17 3.35m-.585-.262c-.118-1.332-1.152-2.548-2.58-2.548-1.43 0-2.445 1.216-2.582 2.548zm9.405-2.637v5.894c0 .156-.136.27-.272.27a.264.264 0 0 1-.273-.27v-1.12c-.449.89-1.253 1.524-2.269 1.524-1.623 0-2.524-1.39-2.524-2.857v-3.455c0-.135.119-.27.273-.27.158 0 .273.136.273.27v3.455c0 1.16.664 2.318 1.974 2.318 1.838 0 2.27-1.697 2.27-3.572v-2.2c0-.157.157-.316.35-.26a.29.29 0 0 1 .198.273m13.82 2.403v3.456c0 .155-.136.269-.272.269a.264.264 0 0 1-.273-.27v-3.455c0-1.159-.664-2.296-1.974-2.296-1.644 0-2.269 1.736-2.269 3.086v2.666c0 .155-.136.269-.273.269a.264.264 0 0 1-.272-.27v-3.455c0-1.159-.665-2.296-1.975-2.296-1.662 0-2.347 1.293-2.286 3.012 0 .039.017.117 0 .135v2.598c0 .13-.09.251-.223.272-.183.029-.327-.095-.327-.265v-5.898c0-.13.09-.251.22-.273.182-.028.326.096.326.266v.986c.47-.83 1.31-1.372 2.287-1.372 1.112 0 1.974.695 2.326 1.719.448-1.003 1.328-1.72 2.462-1.72 1.605 0 2.524 1.369 2.524 2.836"/><g opacity=".6"><mask id="a" width="16" height="9" x="0" y="8" maskUnits="userSpaceOnUse" style="mask-type:luminance"><path fill="#fff" d="M.457 8.874H15.19v7.704H.457z"/></mask><g mask="url(#a)"><path fill="#010101" d="m7.825 8.874-7.368 3.35 7.368 4.354 7.364-4.353z"/></g></g><g opacity=".45"><mask id="b" width="8" height="17" x="0" y="0" maskUnits="userSpaceOnUse" style="mask-type:luminance"><path fill="#fff" d="M.457 0h7.368v16.577H.457z"/></mask><g mask="url(#b)"><path fill="#010101" d="m.457 12.224 7.368 4.353V0z"/></g></g><g opacity=".8"><mask id="c" width="9" height="17" x="7" y="0" maskUnits="userSpaceOnUse" style="mask-type:luminance"><path fill="#fff" d="M7.822 0h7.367v16.577H7.822z"/></mask><g mask="url(#c)"><path fill="#010101" d="M7.823 0v16.577l7.364-4.353z"/></g></g><g opacity=".45"><mask id="d" width="8" height="11" x="0" y="13" maskUnits="userSpaceOnUse" style="mask-type:luminance"><path fill="#fff" d="M.457 13.62h7.368V24H.457z"/></mask><g mask="url(#d)"><path fill="#010101" d="M.457 13.62 7.825 24v-6.027z"/></g></g><g opacity=".8"><mask id="e" width="9" height="12" x="7" y="13" maskUnits="userSpaceOnUse" style="mask-type:luminance"><path fill="#fff" d="M7.824 13.621h7.37v10.38h-7.37z"/></mask><g mask="url(#e)"><path fill="#010101" d="M7.824 17.974V24l7.37-10.379z"/></g></g></svg>