<svg xmlns="http://www.w3.org/2000/svg" width="86" height="20" fill="none" viewBox="0 0 86 20"><mask id="a" width="86" height="20" x="0" y="0" maskUnits="userSpaceOnUse" style="mask-type:luminance"><path fill="#fff" d="M86 .114H0v19.772h86z"/></mask><g mask="url(#a)"><mask id="b" width="86" height="20" x="0" y="0" maskUnits="userSpaceOnUse" style="mask-type:luminance"><path fill="#fff" d="M85.922.114H0v19.634h85.922z"/></mask><g mask="url(#b)"><path fill="#21325b" d="M25.357 6.536v2.7h3.28v1.11h-3.28v2.762h3.659v1.174h-5.097V5.376h5.096v1.16zm8.554 6.496v1.249h-.884q-1.11 0-1.684-.536-.574-.537-.574-1.785V8.554h-.996V7.33h.996V5.603h1.451V7.33h1.678v1.224H32.22v3.431q0 .594.22.82.222.227.777.227zm5.235-5.815q1.211 0 1.942.782.732.783.732 2.233v4.05h-1.438v-3.899q0-.933-.48-1.444a1.71 1.71 0 0 0-1.311-.51 1.8 1.8 0 0 0-1.375.548q-.518.549-.518 1.608v3.696H35.26V4.946h1.438v3.911c.166-.497.495-.924.934-1.211.45-.29.978-.44 1.514-.429m10.81 3.255q.004.311-.05.618h-5.349q.038 1.073.593 1.59a1.94 1.94 0 0 0 1.375.517 2 2 0 0 0 1.218-.366c.323-.231.543-.58.611-.972h1.54c-.087.474-.286.92-.58 1.3a3 3 0 0 1-1.149.889c-.496.22-1.034.33-1.577.322a3.6 3.6 0 0 1-1.784-.43 3.05 3.05 0 0 1-1.217-1.236 3.9 3.9 0 0 1-.442-1.905 3.9 3.9 0 0 1 .442-1.892c.277-.521.7-.95 1.217-1.236a3.6 3.6 0 0 1 1.784-.43 3.6 3.6 0 0 1 1.785.424c.494.266.9.67 1.173 1.16.277.504.418 1.072.41 1.647m-1.45-.038c.03-.395-.051-.79-.233-1.141a1.62 1.62 0 0 0-.707-.682 2.2 2.2 0 0 0-.977-.22 2.02 2.02 0 0 0-1.413.517q-.568.517-.618 1.527zm4.276-1.741a2.7 2.7 0 0 1 1.01-1.079c.457-.27.981-.408 1.513-.397v1.564h-.429q-.945 0-1.52.46-.575.462-.573 1.52v3.521h-1.438V7.331h1.438zm5.879-1.45q1.223 0 1.96.624c.498.426.82 1.022.903 1.672h-1.362a1.47 1.47 0 0 0-.486-.915 1.54 1.54 0 0 0-1.053-.347c-.302-.02-.6.073-.84.259a.88.88 0 0 0-.296.7.7.7 0 0 0 .215.53c.154.142.337.25.536.316q.45.15.914.252a17 17 0 0 1 1.268.366s.602.326.833.599c.246.318.369.715.347 1.116a1.74 1.74 0 0 1-.663 1.413q-.662.543-1.784.543-1.299 0-2.1-.606a2.5 2.5 0 0 1-.965-1.69h1.4a1.32 1.32 0 0 0 .505.92c.334.25.744.374 1.16.354.297.017.588-.08.814-.27a.9.9 0 0 0 .296-.69.76.76 0 0 0-.227-.58 1.6 1.6 0 0 0-.568-.335 8 8 0 0 0-.933-.246 10 10 0 0 1-1.23-.353 1.9 1.9 0 0 1-.807-.574 1.62 1.62 0 0 1-.335-1.079 1.77 1.77 0 0 1 .663-1.432q.662-.548 1.835-.548m7.468 0q1.35 0 2.232.712a3.07 3.07 0 0 1 1.098 1.936h-1.527a1.63 1.63 0 0 0-.612-1.028 1.94 1.94 0 0 0-1.217-.373 1.83 1.83 0 0 0-1.388.587q-.555.586-.555 1.722t.555 1.728a1.82 1.82 0 0 0 1.388.593c.437.017.867-.116 1.218-.377.326-.257.545-.626.612-1.035h1.527a3.1 3.1 0 0 1-1.097 1.943q-.883.72-2.233.719a3.6 3.6 0 0 1-1.784-.43 3.05 3.05 0 0 1-1.218-1.235 3.9 3.9 0 0 1-.443-1.905 3.9 3.9 0 0 1 .442-1.893c.277-.521.7-.95 1.217-1.236a3.6 3.6 0 0 1 1.785-.429m7.505 0a2.75 2.75 0 0 1 1.615.465c.439.302.77.735.946 1.237V7.33h1.438v6.951h-1.438v-1.614a2.5 2.5 0 0 1-.946 1.236 2.75 2.75 0 0 1-1.614.466c-.57.01-1.131-.139-1.622-.429a2.93 2.93 0 0 1-1.116-1.236 4.2 4.2 0 0 1-.404-1.905 4.2 4.2 0 0 1 .404-1.892c.245-.512.633-.941 1.116-1.237a3.1 3.1 0 0 1 1.622-.428m.442 1.26a2 2 0 0 0-1.533.613q-.573.611-.574 1.684 0 1.072.575 1.684a2 2 0 0 0 1.532.612 2.016 2.016 0 0 0 1.842-1.085c.192-.374.288-.79.278-1.21a2.54 2.54 0 0 0-.278-1.206 2.01 2.01 0 0 0-1.842-1.091m9.171-1.285q1.212 0 1.943.782.73.782.731 2.233v4.048h-1.437v-3.898q0-.933-.48-1.444a1.71 1.71 0 0 0-1.312-.51 1.8 1.8 0 0 0-1.375.548q-.517.549-.517 1.608v3.696h-1.438v-6.95H80.8v1.527c.166-.498.495-.924.933-1.211.451-.29.978-.44 1.515-.43M4.146 9.504a.83.83 0 0 1 .832-.829l1.381.005a.83.83 0 0 1 .83.83v5.22c.156-.045.355-.094.574-.146a.69.69 0 0 0 .533-.673V7.435a.83.83 0 0 1 .83-.83h1.384a.83.83 0 0 1 .83.83v6.01s.346-.14.684-.282a.69.69 0 0 0 .423-.638V5.36a.83.83 0 0 1 .83-.83h1.383a.83.83 0 0 1 .83.83v5.901c1.2-.87 2.415-1.915 3.38-3.172a1.4 1.4 0 0 0 .212-1.3A9.77 9.77 0 1 0 1.38 14.861a1.24 1.24 0 0 0 1.179.611q.392-.034.975-.1a.69.69 0 0 0 .613-.687z"/><path fill="#979695" d="M4.115 17.878a9.775 9.775 0 0 0 15.526-7.907q-.001-.337-.025-.67c-3.572 5.328-10.167 7.818-15.5 8.576"/></g></g></svg>