<svg xmlns="http://www.w3.org/2000/svg" width="86" height="18" fill="none" viewBox="0 0 86 18"><path fill="#171717" fill-rule="evenodd" d="M8.92.3A8.917 8.917 0 0 0 0 9.22a8.91 8.91 0 0 0 6.099 8.463c.446.078.613-.19.613-.424 0-.212-.011-.914-.011-1.661-2.241.412-2.82-.546-3-1.048-.1-.257-.535-1.048-.914-1.26-.312-.167-.758-.58-.01-.59.702-.012 1.203.646 1.37.913.803 1.35 2.086.97 2.598.736.079-.58.313-.97.57-1.193-1.985-.223-4.06-.992-4.06-4.404 0-.97.346-1.773.915-2.397-.09-.223-.401-1.137.09-2.364 0 0 .746-.234 2.452.915a8.3 8.3 0 0 1 2.23-.301c.758 0 1.516.1 2.23.3 1.706-1.159 2.453-.914 2.453-.914.49 1.227.178 2.141.089 2.364.569.624.914 1.416.914 2.397 0 3.423-2.085 4.181-4.07 4.404.324.279.603.814.603 1.65 0 1.193-.011 2.152-.011 2.453 0 .234.167.513.613.424a8.93 8.93 0 0 0 6.076-8.463A8.917 8.917 0 0 0 8.92.3" clip-rule="evenodd"/><path fill="#171717" d="M29.662 15.734q-1.444 0-2.662-.452a6.5 6.5 0 0 1-2.106-1.323 6.2 6.2 0 0 1-1.392-2q-.486-1.149-.487-2.524 0-1.374.487-2.522a6.1 6.1 0 0 1 1.41-2.001 6.2 6.2 0 0 1 2.123-1.305q1.217-.47 2.679-.47 1.618 0 2.906.54 1.304.538 2.192 1.565l-1.81 1.67a4.3 4.3 0 0 0-1.444-1.026 4.15 4.15 0 0 0-1.705-.348q-.886 0-1.618.278-.73.28-1.27.8-.521.523-.818 1.236a4.3 4.3 0 0 0-.278 1.583q0 .853.278 1.566.296.714.818 1.253.54.522 1.253.8.73.279 1.6.279.835 0 1.618-.261.8-.279 1.549-.922l1.6 2.035q-.99.75-2.313 1.149-1.305.4-2.61.4m2.349-1.914V9.244h2.575v4.942zM37.013 15.525v-9.36h2.714v9.36zM38.37 4.86q-.749 0-1.218-.434a1.41 1.41 0 0 1-.47-1.08q0-.642.47-1.078.47-.435 1.218-.435.749 0 1.218.418.47.399.47 1.044 0 .678-.47 1.13-.453.435-1.218.435M46.074 15.664q-1.653 0-2.575-.835-.922-.853-.922-2.523V4.094h2.714v8.178q0 .59.313.922.313.313.853.313.643 0 1.096-.348l.73 1.914a3.1 3.1 0 0 1-1.009.452 5 5 0 0 1-1.2.14m-4.942-7.203V6.373h6.49v2.088zM58.35 3.346h2.819v12.18H58.35zm-5.533 12.18H50V3.345h2.818zm5.742-4.994h-5.95V8.148h5.95zM67.809 15.664q-1.165 0-2.088-.452a3.22 3.22 0 0 1-1.41-1.374q-.504-.94-.504-2.384v-5.29h2.714v4.89q0 1.165.487 1.722.505.54 1.41.54a2.3 2.3 0 0 0 1.113-.261q.487-.278.766-.836.278-.574.278-1.426V6.164h2.715v9.361h-2.576V12.95l.47.748a3.25 3.25 0 0 1-1.392 1.48 4.1 4.1 0 0 1-1.983.486M81.337 15.664q-1.236 0-2.123-.522t-1.357-1.583q-.47-1.08-.47-2.714 0-1.653.488-2.714.504-1.062 1.391-1.584.888-.522 2.071-.522 1.323 0 2.366.592a4.3 4.3 0 0 1 1.67 1.67Q86 9.367 86 10.845q0 1.461-.626 2.54a4.4 4.4 0 0 1-1.67 1.688q-1.045.591-2.367.591m-5.533-.139V2.615h2.714v5.446l-.174 2.766.053 2.784v1.914zm5.063-2.088q.68 0 1.2-.313.54-.313.853-.887.33-.592.331-1.392 0-.818-.33-1.392a2.24 2.24 0 0 0-.853-.887 2.3 2.3 0 0 0-1.2-.314 2.4 2.4 0 0 0-1.219.314q-.54.312-.852.887-.313.575-.313 1.392 0 .8.313 1.392.314.574.852.887.54.313 1.218.313"/></svg>