<svg xmlns="http://www.w3.org/2000/svg" width="84" height="20" fill="none" viewBox="0 0 84 20"><path fill="#001f54" d="M29.361 15.84q-1.39 0-2.563-.436a6.2 6.2 0 0 1-2.027-1.274 6 6 0 0 1-1.34-1.926q-.47-1.107-.47-2.43t.47-2.43a5.9 5.9 0 0 1 1.356-1.926 6 6 0 0 1 2.044-1.257q1.173-.452 2.58-.452 1.56 0 2.799.52a5.55 5.55 0 0 1 2.11 1.507l-1.742 1.609a4.1 4.1 0 0 0-1.39-.989 4 4 0 0 0-1.642-.335q-.856 0-1.558.268-.704.269-1.224.77a3.6 3.6 0 0 0-.787 1.19 4.2 4.2 0 0 0-.268 1.525q0 .82.268 1.508.285.687.787 1.206.52.503 1.207.771.704.268 1.541.268.804 0 1.558-.251.77-.268 1.492-.888l1.541 1.96q-.956.721-2.228 1.106a8.5 8.5 0 0 1-2.514.385m2.262-1.844V9.59h2.48v4.758zM40.73 15.772q-1.442 0-2.564-.603a4.7 4.7 0 0 1-1.76-1.642q-.636-1.055-.636-2.396 0-1.357.637-2.396a4.5 4.5 0 0 1 1.759-1.642q1.122-.603 2.564-.603 1.424 0 2.546.603a4.4 4.4 0 0 1 1.76 1.625q.636 1.04.636 2.413 0 1.34-.636 2.396a4.54 4.54 0 0 1-1.76 1.642q-1.122.603-2.547.603m0-2.144q.653 0 1.172-.302.52-.301.821-.854.302-.57.302-1.34 0-.789-.302-1.341a2.16 2.16 0 0 0-.82-.855 2.3 2.3 0 0 0-1.173-.301q-.654 0-1.173.301a2.3 2.3 0 0 0-.838.855q-.302.552-.302 1.34 0 .77.302 1.34.318.554.838.855.52.302 1.172.302M51.709 15.772q-1.44 0-2.564-.603a4.7 4.7 0 0 1-1.76-1.642q-.636-1.055-.636-2.396 0-1.357.637-2.396a4.5 4.5 0 0 1 1.76-1.642q1.122-.603 2.563-.603 1.425 0 2.546.603a4.4 4.4 0 0 1 1.76 1.625q.636 1.04.636 2.413 0 1.34-.636 2.396a4.54 4.54 0 0 1-1.76 1.642q-1.122.603-2.546.603m0-2.144q.653 0 1.172-.302a2.16 2.16 0 0 0 .822-.854q.3-.57.301-1.34 0-.789-.301-1.341a2.16 2.16 0 0 0-.822-.855 2.3 2.3 0 0 0-1.172-.301q-.654 0-1.173.301a2.3 2.3 0 0 0-.838.855q-.301.552-.301 1.34 0 .77.301 1.34.319.554.838.855.519.302 1.173.302M62.638 19.023q-1.274 0-2.463-.319-1.173-.3-1.96-.921l1.038-1.877q.57.47 1.441.738.888.285 1.742.285 1.392 0 2.011-.62.637-.62.637-1.844v-1.357l.167-2.262-.033-2.278V6.624h2.48v7.506q0 2.514-1.307 3.703-1.308 1.19-3.753 1.19m-.402-3.82q-1.257 0-2.28-.536a4.43 4.43 0 0 1-1.625-1.525q-.603-.989-.603-2.296 0-1.323.603-2.295a4.26 4.26 0 0 1 1.626-1.525q1.021-.536 2.279-.536 1.14 0 2.01.47.87.451 1.357 1.423.486.956.486 2.463 0 1.492-.486 2.463-.486.956-1.357 1.425-.87.468-2.01.469m.519-2.145q.687 0 1.223-.268a2.1 2.1 0 0 0 .838-.787q.3-.504.301-1.157 0-.67-.301-1.156a2 2 0 0 0-.838-.77 2.57 2.57 0 0 0-1.223-.285q-.687 0-1.223.285a2.1 2.1 0 0 0-.855.77q-.3.486-.301 1.156 0 .654.301 1.156.318.504.855.788.536.268 1.223.268M70.13 15.638V3.206h2.614v12.432zM79.644 15.772q-1.542 0-2.715-.603-1.155-.604-1.793-1.642-.636-1.055-.636-2.396 0-1.357.62-2.396.637-1.054 1.726-1.642 1.089-.603 2.463-.603 1.323 0 2.379.57a4.1 4.1 0 0 1 1.692 1.608q.62 1.04.62 2.497 0 .15-.017.352-.016.184-.033.351h-7.322v-1.524h5.948l-1.005.452q0-.704-.285-1.223a2 2 0 0 0-.788-.804q-.502-.302-1.173-.302-.67 0-1.19.302-.501.285-.787.82-.285.52-.285 1.24v.403q0 .737.319 1.307.334.552.921.854.603.285 1.408.285.72 0 1.256-.218a3.1 3.1 0 0 0 1.006-.653l1.39 1.508a4.1 4.1 0 0 1-1.558 1.089q-.938.368-2.161.368"/><path fill="#4285f4" d="M16.42 9.542c0-.689-.056-1.192-.177-1.713H8.378v3.11h4.617c-.093.772-.596 1.935-1.713 2.717l-.016.104 2.487 1.927.172.017c1.583-1.461 2.495-3.612 2.495-6.162"/><path fill="#34a853" d="M8.378 17.732c2.262 0 4.16-.744 5.548-2.029l-2.644-2.048c-.707.494-1.657.838-2.904.838-2.216 0-4.096-1.461-4.766-3.481l-.098.008-2.586 2.001-.034.094a8.37 8.37 0 0 0 7.484 4.617"/><path fill="#fbbc05" d="M3.612 11.012a5.2 5.2 0 0 1-.28-1.657c0-.577.103-1.136.27-1.657l-.004-.11L.979 5.553l-.085.04A8.4 8.4 0 0 0 0 9.355c0 1.35.326 2.625.894 3.76z"/><path fill="#eb4335" d="M8.378 4.217c1.573 0 2.634.68 3.24 1.247l2.364-2.308C12.529 1.806 10.64.978 8.378.978A8.37 8.37 0 0 0 .894 5.594l2.709 2.104c.68-2.02 2.56-3.481 4.775-3.481"/></svg>