<svg xmlns="http://www.w3.org/2000/svg" width="93" height="26" fill="none" viewBox="0 0 93 26"><path fill="#161616" d="M83.81 13.017c-.396-.27-.827-.45-1.259-.684-.27-.143-.557-.287-.79-.485-.396-.324-.324-.97.107-1.258.593-.396 1.582-.18 1.69.629 0 .018.018.036.036.036h.899a.04.04 0 0 0 .036-.036c-.054-.557-.27-1.025-.665-1.33a2.07 2.07 0 0 0-1.277-.432c-2.373 0-2.588 2.517-1.312 3.308.144.09 1.402.719 1.851 1.007.45.27.576.773.396 1.168-.18.36-.63.611-1.079.575-.503-.036-.88-.305-1.024-.719a1.6 1.6 0 0 1-.036-.287c0-.018-.018-.036-.036-.036h-.971a.04.04 0 0 0-.036.036c0 .7.18 1.096.647 1.456.45.341.935.485 1.456.485 1.33 0 2.014-.755 2.158-1.528.108-.755-.108-1.438-.791-1.905M41.437 9.6h-.899c-.018 0-.036.019-.036.019l-.809 2.642c-.018.036-.054.036-.072 0l-.809-2.642c0-.018-.018-.018-.036-.018h-1.474a.04.04 0 0 0-.036.036v6.741c0 .018.018.036.036.036h.97a.04.04 0 0 0 .037-.036v-5.123c0-.036.054-.054.072-.019l.809 2.661.054.18c0 .018.018.018.036.018h.755c.018 0 .036-.018.036-.018l.053-.18.81-2.66c.018-.036.071-.036.071.018v5.123c0 .018.018.036.036.036h.971a.04.04 0 0 0 .036-.036V9.637c0-.018-.018-.036-.036-.036zM68.87 9.6c-.018 0-.036.019-.036.019l-.809 2.642c-.018.036-.054.036-.072 0l-.809-2.642c0-.018-.018-.018-.035-.018h-1.493a.04.04 0 0 0-.036.036v6.741c0 .018.018.036.036.036h.971a.04.04 0 0 0 .036-.036v-5.123c0-.036.054-.054.072-.019l.809 2.661.054.18c0 .018.018.018.036.018h.755c.018 0 .036-.018.036-.018l.054-.18.809-2.66c.018-.036.072-.036.072.018v5.123c0 .018.018.036.036.036h.97a.04.04 0 0 0 .036-.036V9.637c0-.018-.018-.036-.035-.036zM56.286 9.6h-4.62a.04.04 0 0 0-.036.037v.845c0 .018.018.035.036.035h1.78v5.861c0 .018.018.036.036.036h.97c.019 0 .037-.018.037-.036v-5.86h1.78c.017 0 .035-.019.035-.037v-.844c.018-.018 0-.036-.018-.036M62.039 16.414h.88c.019 0 .037-.018.037-.054l-1.834-6.759c0-.018-.018-.018-.036-.018H59.81c-.018 0-.036.018-.036.018l-1.834 6.76c0 .017.018.053.036.053h.88c.019 0 .037-.018.037-.018l.54-1.977c0-.018.017-.018.035-.018h1.96c.018 0 .036.018.036.018l.539 1.977s.018.018.036.018m-2.337-2.984.719-2.642c.018-.037.054-.037.072 0l.719 2.642c0 .018-.018.054-.036.054h-1.42c-.036 0-.054-.036-.054-.054M77.176 16.414h.88c.019 0 .037-.018.037-.054l-1.834-6.759c0-.018-.018-.018-.036-.018h-1.276c-.018 0-.036.018-.036.018l-1.834 6.76c0 .017.018.053.036.053h.88c.019 0 .037-.018.037-.018l.54-1.977c0-.018.017-.018.035-.018h1.96c.018 0 .036.018.036.018l.539 1.977s.018.018.036.018m-2.337-2.984.719-2.642c.018-.037.054-.037.072 0l.719 2.642c0 .018-.018.054-.036.054h-1.42c-.036 0-.054-.036-.054-.054M46.003 15.407v-2.085c0-.018.018-.036.036-.036h2.606c.018 0 .036-.018.036-.036v-.845c0-.018-.018-.036-.035-.036h-2.607a.04.04 0 0 1-.036-.036v-1.78c0-.018.018-.036.036-.036h2.948c.018 0 .036-.018.036-.035v-.845a.04.04 0 0 0-.036-.036h-3.991c-.018 0-.036.018-.036.036v6.741c0 .018.018.036.036.036h4.117a.04.04 0 0 0 .036-.036v-.88c0-.019-.018-.037-.036-.037H46.02c0-.018-.018-.036-.018-.054M92.727 16.343l-3.38-3.488q-.027-.027 0-.054l3.038-3.164c.018-.018 0-.054-.017-.054h-1.241c-.018 0-.018 0-.018.018l-2.589 2.697c-.018.018-.054 0-.054-.018V9.655a.04.04 0 0 0-.036-.036h-.988a.04.04 0 0 0-.036.036v6.742c0 .017.018.035.036.035h.97c.018 0 .036-.018.036-.035V13.43c0-.036.036-.054.054-.018l2.913 3.02.018.018h1.24c.054-.036.072-.09.054-.107"/><path fill="#e17726" stroke="#e17726" stroke-linecap="round" stroke-linejoin="round" d="M25.85 1 15.759 8.508l1.877-4.431z"/><path fill="#e27625" stroke="#e27625" stroke-linecap="round" stroke-linejoin="round" d="m2.527 1 10.031 7.57-1.784-4.493zM22.22 18.385l-2.708 4.123 5.785 1.6 1.63-5.63zM1.482 18.477l1.63 5.63 5.754-1.6-2.677-4.122z"/><path fill="#e27625" stroke="#e27625" stroke-linecap="round" stroke-linejoin="round" d="m8.558 11.431-1.6 2.43 5.693.247-.185-6.154zM19.85 11.43l-3.969-3.538-.123 6.215 5.693-.246zM8.866 22.508l3.446-1.662-2.985-2.338zM16.097 20.846l3.415 1.662-.461-4z"/><path fill="#d5bfb2" stroke="#d5bfb2" stroke-linecap="round" stroke-linejoin="round" d="m19.511 22.508-3.415-1.661.277 2.215-.031.954zM8.866 22.508l3.2 1.508-.031-.954.277-2.215z"/><path fill="#233447" stroke="#233447" stroke-linecap="round" stroke-linejoin="round" d="m12.128 17.031-2.862-.83 2-.924zM16.281 17.031l.831-1.754 2.03.923z"/><path fill="#cc6228" stroke="#cc6228" stroke-linecap="round" stroke-linejoin="round" d="m8.867 22.509.492-4.123-3.17.092zM19.052 18.386l.461 4.123 2.708-4.03zM21.45 13.862l-5.692.246.523 2.924.831-1.754 2.03.923zM9.267 16.2l2-.922.862 1.754.523-2.924-5.693-.246z"/><path fill="#e27525" stroke="#e27525" stroke-linecap="round" stroke-linejoin="round" d="m6.958 13.861 2.37 4.647-.062-2.308zM19.143 16.2l-.093 2.308 2.4-4.647zM12.65 14.107l-.522 2.924.646 3.476.154-4.584zM15.759 14.107l-.277 1.816.123 4.584.677-3.477z"/><path fill="#f5841f" stroke="#f5841f" stroke-linecap="round" stroke-linejoin="round" d="m16.281 17.031-.677 3.477.493.338 2.953-2.338.093-2.308zM9.266 16.2l.062 2.308 2.984 2.338.462-.338-.646-3.477z"/><path fill="#c0ac9d" stroke="#c0ac9d" stroke-linecap="round" stroke-linejoin="round" d="m16.343 24.016.03-.954-.276-.216H12.28l-.246.216.031.953-3.2-1.507 1.108.923L12.25 25h3.877l2.276-1.57 1.108-.923z"/><path fill="#161616" stroke="#161616" stroke-linecap="round" stroke-linejoin="round" d="m16.096 20.846-.492-.338h-2.83l-.462.338-.277 2.216.246-.216h3.815l.277.216z"/><path fill="#763e1a" stroke="#763e1a" stroke-linecap="round" stroke-linejoin="round" d="m26.282 9 .861-4.154L25.851 1l-9.754 7.262 3.754 3.169 5.292 1.538 1.17-1.354-.493-.369.8-.738-.615-.493.8-.615zM1.266 4.846 2.128 9l-.554.4.8.615-.616.493.831.738-.523.37 1.17 1.353 5.322-1.538 3.754-3.17L2.528 1z"/><path fill="#f5841f" stroke="#f5841f" stroke-linecap="round" stroke-linejoin="round" d="m25.143 12.97-5.292-1.54 1.6 2.431-2.4 4.647 3.17-.031h4.707zM8.558 11.43l-5.323 1.54-1.754 5.507h4.708l3.138.03-2.37-4.646zM15.759 14.108l.338-5.846 1.539-4.185h-6.862l1.539 4.185.338 5.846.123 1.846v4.554h2.83v-4.554z"/></svg>