<svg xmlns="http://www.w3.org/2000/svg" width="84" height="18" fill="none" viewBox="0 0 84 18"><path fill="#f25022" d="M0 .097h8.533v8.47H0z"/><path fill="#80ba01" d="M9.405.097h8.533v8.47H9.406z"/><path fill="#777" d="M37.437 3.43c.372-.055.775.071 1.021.36.29.317.343.82.128 1.19-.236.417-.766.61-1.228.51-.48-.085-.878-.527-.857-1.02-.014-.519.423-.981.936-1.04M23.294 3.658h2.684c.835 2.106 1.677 4.21 2.513 6.315.214.526.414 1.06.638 1.582 1.074-2.632 2.165-5.256 3.231-7.89.86-.014 1.722-.004 2.583-.006q-.002 5.34 0 10.682c-.621-.002-1.242.005-1.863-.004.007-2.627 0-5.255.003-7.883a5 5 0 0 0-.011-.354 1.4 1.4 0 0 0-.097.171c-1.066 2.69-2.153 5.372-3.214 8.064-.442.015-.884 0-1.326.008-1.1-2.69-2.187-5.385-3.282-8.077a2 2 0 0 0-.093-.163c-.022 1.151-.003 2.304-.01 3.455l.001 4.783h-1.757zM42.516 6.677a5.1 5.1 0 0 1 2.741.008q.278.075.527.218c-.01.584 0 1.168-.006 1.752-.595-.452-1.35-.737-2.106-.643a2.17 2.17 0 0 0-1.533.845c-.462.597-.569 1.39-.49 2.121.06.572.299 1.143.746 1.522.466.41 1.118.556 1.727.51.602-.068 1.17-.321 1.656-.674.005.553-.002 1.106.004 1.659-.754.445-1.659.56-2.522.518-.884-.046-1.765-.379-2.405-.995-.695-.665-1.072-1.613-1.116-2.563-.045-.987.157-2.018.73-2.842.48-.704 1.23-1.202 2.047-1.436M62.676 6.56c.853-.149 1.746-.04 2.554.264v1.684a3.27 3.27 0 0 0-1.938-.568c-.345.013-.724.158-.881.484-.126.322-.039.744.267.937.523.347 1.148.495 1.69.806.427.238.84.55 1.057.998.407.84.234 1.951-.48 2.578-.682.633-1.665.808-2.568.774-.642-.041-1.287-.167-1.877-.427.003-.59-.003-1.181.004-1.771a4.05 4.05 0 0 0 1.674.717c.422.068.88.071 1.274-.116.376-.185.443-.716.22-1.04-.21-.25-.516-.389-.806-.524-.544-.243-1.115-.446-1.593-.81a1.9 1.9 0 0 1-.689-1.039c-.148-.609-.102-1.295.255-1.827.408-.62 1.115-.992 1.837-1.12M49.91 6.802c.51-.304 1.158-.33 1.714-.144-.003.611 0 1.222-.002 1.833a1.97 1.97 0 0 0-1.247-.29c-.524.058-.94.458-1.155.915-.233.485-.277 1.034-.262 1.564v3.661h-1.82c-.002-2.55.002-5.102-.002-7.653.608-.007 1.215-.004 1.822-.001q-.001.657-.001 1.314c.197-.476.491-.94.954-1.2M36.669 6.686c.612-.002 1.224-.008 1.836.004-.007 2.55 0 5.1-.003 7.65H36.67q-.001-3.825-.001-7.654M55.02 6.546c.885-.112 1.82-.062 2.641.31.714.319 1.292.91 1.612 1.617.342.752.425 1.598.367 2.415-.057.797-.309 1.595-.81 2.228-.515.673-1.29 1.129-2.12 1.298a5.3 5.3 0 0 1-2.161-.002c-.849-.18-1.634-.669-2.132-1.38-.584-.824-.75-1.872-.676-2.86.05-.837.313-1.682.852-2.339.59-.736 1.496-1.17 2.426-1.287M55.57 8c-.442.024-.888.172-1.215.476-.45.405-.657 1.01-.712 1.597-.062.646-.017 1.327.28 1.916a1.84 1.84 0 0 0 1.157.947 2.5 2.5 0 0 0 1.504-.065c.407-.158.73-.49.906-.884.267-.584.293-1.24.26-1.87-.046-.577-.21-1.181-.637-1.597-.398-.4-.99-.556-1.544-.52M69.729 6.543c.92-.113 1.898-.052 2.739.37a3.28 3.28 0 0 1 1.585 1.78c.222.582.3 1.21.287 1.829.001.924-.25 1.874-.835 2.608-.547.71-1.385 1.171-2.269 1.316-.864.14-1.778.103-2.6-.219a3.4 3.4 0 0 1-1.874-1.805c-.365-.833-.404-1.77-.29-2.66.12-.889.526-1.76 1.218-2.35.566-.495 1.296-.774 2.038-.869M70.227 8c-.51.028-1.018.247-1.348.642-.362.422-.517.98-.559 1.524-.043.562 0 1.144.219 1.669.182.44.528.823.974 1.01.413.177.877.209 1.319.143.412-.06.811-.255 1.08-.576.265-.319.405-.721.476-1.124a4.6 4.6 0 0 0-.015-1.636c-.094-.458-.299-.914-.668-1.218-.4-.35-.957-.47-1.478-.434M76.95 3.323c.787-.508 1.803-.554 2.69-.312.007.523.001 1.046.004 1.57-.422-.185-.918-.305-1.36-.124-.352.138-.561.496-.616.855-.066.454-.023.914-.034 1.37.9.003 1.8 0 2.699.002.007-.58-.007-1.16.008-1.74.612-.174 1.217-.367 1.826-.55.005.765-.007 1.53.007 2.294.608-.008 1.217-.002 1.826-.004v1.488c-.61-.025-1.222-.007-1.833-.009.003.855 0 1.71.001 2.566.01.473-.026.95.03 1.421.034.279.136.587.399.73.44.246.999.139 1.403-.13v1.503c-.527.227-1.117.296-1.687.256-.542-.04-1.103-.235-1.456-.662-.407-.483-.513-1.137-.521-1.748-.005-1.313 0-2.625-.002-3.938h-2.7l-.001 6.179h-1.846c0-2.06-.003-4.118.001-6.177-.428-.008-.856.002-1.284-.007q.003-.733-.001-1.468c.426-.01.852-.005 1.28-.001.03-.65-.07-1.32.126-1.954a2.5 2.5 0 0 1 1.041-1.41"/><path fill="#02a4ef" d="M0 9.432h8.533v8.47H0z"/><path fill="#ffb902" d="M9.405 9.433h8.533v8.47H9.405z"/></svg>