<svg xmlns="http://www.w3.org/2000/svg" width="66" height="24" fill="none" viewBox="0 0 66 24"><path fill="#335da3" fill-rule="evenodd" d="M45.756 9.77c-1.233 0-2.227.298-3.038.949-.514.388-.936.856-1.325 1.495l.389-2.01H37.11L34.873 23.44h4.932l1.325-7.834c.263-1.416.903-2.147 1.93-2.101.777 0 1.153.377 1.2 1.108l-1.45 8.827h5.046l1.416-8.61.126-1.668c-.035-.993-.377-1.804-1.028-2.443-.639-.651-1.54-.948-2.614-.948" clip-rule="evenodd"/><path fill="#329fdd" fill-rule="evenodd" d="M46.018 3.308c-.363.21-.276.896.125 1.792 1.404 3.135 3.346 5.699 5.825 7.629-.252-1.245-.172-2.273.262-3.175.423-.89 1.199-1.496 2.318-1.793l-.137-.856c-1.93-1.759-4.142-3.104-6.635-3.768-.538-.144-1.172-.17-1.758.17" clip-rule="evenodd"/><path fill="#e0a45b" fill-rule="evenodd" d="M55.746 7.327c.891 1.508 1.496 2.912 1.839 4.294l.046.251.08.263c1.118.468 2.272.685 3.471.548 1.245-.171 2.147-.685 2.695-1.576l.65-1.507c-.821-1.496-2.191-2.444-4.11-2.787-1.633-.251-3.175-.08-4.67.514" clip-rule="evenodd"/><path fill="#335da3" fill-rule="evenodd" d="M57.586 11.621c-.343-1.382-.948-2.786-1.839-4.294l-.09-.125-.47-.731c-.216-.297-.365-.363-.558-.277-.204.09-.298.243-.217.585v.126l.137.856.034.297 1.542 4.248.171.343c.514.81 1.073 1.496 1.633 2.01l-.217-2.398-.08-.389z" clip-rule="evenodd"/><path fill="#ce5a36" fill-rule="evenodd" d="M55.747 7.327c1.496-.594 3.038-.765 4.67-.514 1.92.343 3.29 1.291 4.112 2.787 1.233-3.3 1.418-6.087.297-8.268A2.94 2.94 0 0 0 63.97.35c-.68-.51-1.49-.422-2.352 0-3.431 1.68-5.527 3.768-6.258 6.292l.297.56z" clip-rule="evenodd"/><path fill="#43a756" fill-rule="evenodd" d="m54.582 8.059-.035-.297c-1.12.297-1.895.902-2.318 1.792-.434.903-.514 1.93-.262 3.175l.902.605c.903.275 1.798.425 2.66.126l.766-.811-.171-.343z" clip-rule="evenodd"/><path fill="#8bbe5b" fill-rule="evenodd" d="m52.87 13.335-.903-.606c.903 2.319 2.216 4.094 4.122 5.014.282.136.639.14.937.045.193-.062.301-.284.388-.468.297-.63.422-1.507.514-2.66-.56-.515-1.12-1.2-1.633-2.01l-.765.81c-.813.308-1.724.14-2.66-.125" clip-rule="evenodd"/><path fill="#f2ca3c" fill-rule="evenodd" d="M61.274 16.84c.34.036.618-.15.856-.343.963-.789 1.688-1.75 2.136-2.958a6.76 6.76 0 0 0 .262-3.94l-.65 1.508c-.548.89-1.45 1.405-2.695 1.576-1.199.137-2.353-.08-3.472-.548v.125l.217 2.399a8.9 8.9 0 0 0 2.786 2.009c.178.08.366.15.56.171" clip-rule="evenodd"/><path fill="#335da3" fill-rule="evenodd" d="M35.043 19.33c.092-1.542-.514-2.695-1.793-3.518-.776-.468-1.884-.857-3.345-1.153-1.542-.297-2.307-.686-2.307-1.154 0-.65.594-.947 1.793-.856 1.028.035 1.759.514 2.192 1.45l3.895-.902c-.857-2.26-2.741-3.471-5.699-3.597-1.93-.046-3.471.263-4.67.994-1.497.81-2.228 2.055-2.273 3.803-.046 2.021 1.587 3.437 4.968 4.248 1.633.422 2.443.856 2.443 1.325 0 .639-.64.901-1.884.856-1.325 0-2.227-.548-2.695-1.668l-4.031.903c.947 2.615 3.174 3.94 6.68 3.94 1.76 0 3.22-.343 4.465-1.074 1.405-.81 2.181-2.01 2.261-3.598m28.24-1.633.047-.297h-1.245l-.046.297h.434l-.217 1.37h.343l.251-1.37zm-.09 1.37h.308l.25-1.37.218 1.37h.217l.685-1.37-.217 1.37h.343l.296-1.668h-.56l-.513 1.028-.206-1.027h-.513zm-56.63-3.21.468-1.632c.297-.468.731-.72 1.28-.72.684 0 1.027.378 1.073 1.108l-.046.949-1.37 7.879h4.887l1.29-7.583.47-1.633c.296-.468.684-.72 1.244-.72.685 0 1.028.378 1.062 1.109l-.08.948-1.29 7.88h5.013l1.461-8.657.08-1.325c-.08-2.443-1.325-3.688-3.677-3.688-1.804 0-3.175.822-4.157 2.444-.514-1.622-1.587-2.444-3.22-2.444-1.108 0-2.09.342-2.992 1.027l-1.2 1.416.298-2.01H2.703L.43 23.441h4.888zm43.9 5.007q.327 0 .638.167c.206.11.374.277.486.481a1.307 1.307 0 0 1 .002 1.297 1.2 1.2 0 0 1-.48.482 1.31 1.31 0 0 1-1.292 0 1.2 1.2 0 0 1-.482-.482 1.31 1.31 0 0 1 .003-1.297q.174-.314.486-.48c.195-.109.415-.166.638-.168m0 .215q-.274 0-.533.14a1 1 0 0 0-.406.401 1.1 1.1 0 0 0-.146.543 1.09 1.09 0 0 0 .546.94q.258.143.538.144.28 0 .54-.145.257-.144.4-.4a1.1 1.1 0 0 0-.002-1.082 1 1 0 0 0-.405-.401 1.1 1.1 0 0 0-.533-.14m-.57 1.802v-1.398h.48q.246 0 .356.038a.35.35 0 0 1 .176.136.37.37 0 0 1-.044.472.43.43 0 0 1-.29.128q.075.03.119.073.084.084.206.278l.171.273h-.276l-.124-.22q-.145-.26-.235-.326a.3.3 0 0 0-.181-.048h-.133v.594zm.225-.786h.274q.196 0 .268-.059a.19.19 0 0 0 .071-.155.2.2 0 0 0-.035-.111.2.2 0 0 0-.095-.073.7.7 0 0 0-.226-.023h-.257z" clip-rule="evenodd"/></svg>