<svg xmlns="http://www.w3.org/2000/svg" width="86" height="18" fill="none" viewBox="0 0 86 18"><path fill="#000" d="M29.129 9.767h3.24a.828.828 0 0 1 0 1.658h-3.908a.25.25 0 0 0-.165.063l-1.179 1.018c-.18.157-.07.451.165.451h4.891q.002.001.004-.004c0-.004.004-.004.004-.004.063.004.122.008.189.008a2.356 2.356 0 0 0 2.35-2.36 2.356 2.356 0 0 0-2.158-2.354q-.002.001-.003-.004.001-.005-.005-.004h-3.488a.828.828 0 0 1 0-1.658h3.901a.26.26 0 0 0 .173-.067l1.096-1.017a.258.258 0 0 0-.173-.448H29.07a2.356 2.356 0 0 0-2.35 2.361 2.356 2.356 0 0 0 2.35 2.361zM47.998 5.041a.256.256 0 0 0-.255.26v7.4c0 .142.113.26.255.26h5.932c.071 0 .138-.031.189-.082l.742-.798a.256.256 0 0 0-.188-.432h-5.178a.256.256 0 0 1-.256-.26V5.3a.26.26 0 0 0-.255-.259z"/><path fill="#000" fill-rule="evenodd" d="M38.499 5.041c-.004.004 0 .004 0 0a1.475 1.475 0 0 0-1.403 1.403v5.04c0 .79.62 1.434 1.403 1.465h5.382a1.47 1.47 0 0 0 1.402-1.465V6.447a1.465 1.465 0 0 0-1.398-1.402h-5.386zM39.5 6.447a.92.92 0 0 0-.876.884v3.171a.92.92 0 0 0 .876.923h3.375a.92.92 0 0 0 .876-.923v-3.17a.92.92 0 0 0-.876-.885zM63.485 12.702c0 .141.114.26.255.26h1.006a.256.256 0 0 0 .255-.26V6.514c0-.79-.617-1.434-1.387-1.465h-5.229c-.801 0-1.45.656-1.45 1.47v6.187c0 .141.114.26.256.26h1.006a.256.256 0 0 0 .255-.26v-2.55c0-.141.114-.26.255-.26h4.534c.142 0 .256.115.256.26v2.546zM58.44 8.486V7.214a.89.89 0 0 1 .884-.896h3.277c.487 0 .884.4.884.896v1.272c0 .142-.114.26-.256.26h-4.533a.256.256 0 0 1-.256-.26M84.72 12.961a.256.256 0 0 1-.256-.26v-2.549a.26.26 0 0 0-.255-.26h-4.585a.256.256 0 0 0-.256.26v2.55c0 .141-.114.26-.255.26h-1.014a.256.256 0 0 1-.255-.26V6.514c0-.81.656-1.47 1.465-1.47h5.288C85.375 5.08 86 5.725 86 6.51v6.188c0 .141-.114.26-.255.26h-1.026zm-5.356-5.747v1.272c0 .142.114.26.256.26h4.585a.256.256 0 0 0 .255-.26V7.214c0-.495-.4-.896-.892-.896h-3.312c-.49 0-.892.4-.892.896" clip-rule="evenodd"/><path fill="#000" d="M68.785 5.041c.074 0 .145.031.192.09l4.51 5.379c.154.18.448.07.448-.17V5.3c0-.141.114-.259.256-.259h1.005c.142 0 .256.114.256.26v7.4c0 .142-.114.26-.256.26h-1.249q-.007-.001-.008-.008c0-.004 0-.004-.004-.008l-4.588-5.339c-.154-.18-.448-.066-.448.17v4.93c0 .141-.114.26-.256.26H67.63a.256.256 0 0 1-.256-.26V5.3c0-.141.114-.259.256-.259z"/><path fill="url(#a)" d="M3.329 13.234a.67.67 0 0 1 .471-.197h16.364c.298 0 .448.361.235.57l-3.233 3.23a.67.67 0 0 1-.471.196H.335a.333.333 0 0 1-.235-.57z"/><path fill="url(#b)" d="M3.329 1.164A.67.67 0 0 1 3.8.968h16.364c.298 0 .448.361.235.57l-3.233 3.229a.67.67 0 0 1-.471.196H.335a.333.333 0 0 1-.235-.57z"/><path fill="url(#c)" d="M17.166 7.16a.67.67 0 0 0-.471-.197H.335a.333.333 0 0 0-.235.57l3.233 3.229a.67.67 0 0 0 .471.196h16.364a.333.333 0 0 0 .235-.57z"/><defs><linearGradient id="a" x1="18.601" x2="7.278" y1="-.961" y2="20.728" gradientUnits="userSpaceOnUse"><stop stop-color="#00ffa3"/><stop offset="1" stop-color="#dc1fff"/></linearGradient><linearGradient id="b" x1="13.65" x2="2.327" y1="-3.547" y2="18.142" gradientUnits="userSpaceOnUse"><stop stop-color="#00ffa3"/><stop offset="1" stop-color="#dc1fff"/></linearGradient><linearGradient id="c" x1="16.11" x2="4.787" y1="-2.263" y2="19.427" gradientUnits="userSpaceOnUse"><stop stop-color="#00ffa3"/><stop offset="1" stop-color="#dc1fff"/></linearGradient></defs></svg>