<svg xmlns="http://www.w3.org/2000/svg" width="72" height="20" fill="none" viewBox="0 0 72 20"><g fill-rule="evenodd" clip-path="url(#a)" clip-rule="evenodd"><path fill="#50af95" d="M4.614.818.67 8.983a.16.16 0 0 0 .034.185L11.36 19.23a.164.164 0 0 0 .225 0L22.239 9.17a.16.16 0 0 0 .035-.185L18.328.818a.16.16 0 0 0-.145-.091H4.761a.16.16 0 0 0-.147.09"/><path fill="#fff" d="M12.84 9.822c-.076.006-.472.03-1.353.03-.701 0-1.2-.021-1.374-.03-2.71-.117-4.733-.582-4.733-1.138 0-.557 2.023-1.021 4.733-1.14v1.815c.177.013.685.043 1.386.043.841 0 1.263-.035 1.339-.042V7.545c2.704.118 4.722.583 4.722 1.139 0 .555-2.017 1.02-4.722 1.138zm0-2.465V5.732h3.774V3.254H6.34v2.478h3.773v1.624c-3.067.14-5.373.738-5.373 1.455s2.306 1.315 5.373 1.455v5.207h2.727v-5.209c3.06-.139 5.363-.737 5.363-1.454 0-.716-2.3-1.314-5.363-1.454z"/></g><path fill="#5b5a5d" d="M29.635 5.17v2.232h2.16v1.67h-2.184v3.39c0 .752.418 1.11 1.015 1.11.298 0 .656-.095.943-.239l.537 1.66a4.2 4.2 0 0 1-1.612.333c-1.706.06-2.816-.907-2.816-2.864v-3.39H26.21v-1.67h1.468v-2.03zM66.98 7.294l.143.907c.609-.967 1.42-1.11 2.208-1.11.811 0 1.587.322 2.017.752l-.871 1.683c-.394-.334-.764-.513-1.397-.513-1.014 0-1.957.537-1.957 1.993v4.141h-1.946V7.294zm-4.762 3.008c-.132-1.015-.92-1.528-2.041-1.528-1.05 0-1.91.513-2.196 1.528zm-4.261 1.611c.131.967.967 1.67 2.34 1.67.715 0 1.658-.274 2.1-.727l1.24 1.23c-.823.858-2.183 1.276-3.377 1.276-2.709 0-4.32-1.67-4.32-4.189 0-2.387 1.623-4.106 4.177-4.106 2.626 0 4.273 1.623 3.962 4.858h-6.122zM49.387 4v4.356c.705-.907 1.564-1.181 2.447-1.181 2.232 0 3.21 1.515 3.21 3.819v4.141H53.1v-4.117c0-1.432-.752-2.041-1.778-2.041-1.146 0-1.945.967-1.945 2.148v4.01H47.43V4zm-5.155 1.074v2.232h2.16v1.67h-2.184v3.39c0 .752.418 1.11 1.014 1.11.299 0 .657-.095.943-.238l.537 1.659a4.2 4.2 0 0 1-1.611.334c-1.707.06-2.817-.907-2.817-2.864v-3.39h-1.468V7.306h1.468V5.289zm-5.371 5.228c-.131-1.015-.92-1.528-2.041-1.528-1.05 0-1.91.513-2.196 1.528zm-4.26 1.611c.13.967.966 1.67 2.338 1.67.716 0 1.66-.274 2.1-.727l1.242 1.23c-.823.858-2.184 1.276-3.377 1.276-2.71 0-4.32-1.67-4.32-4.189 0-2.387 1.622-4.106 4.164-4.106 2.626 0 4.261 1.623 3.963 4.858H34.6z"/><defs><clipPath id="a"><path fill="#fff" d="M.652.727H22.29v18.547H.652z"/></clipPath></defs></svg>