<svg xmlns="http://www.w3.org/2000/svg" width="90" height="24" fill="none" viewBox="0 0 90 24"><mask id="a" width="90" height="24" x="0" y="0" maskUnits="userSpaceOnUse" style="mask-type:luminance"><path fill="#fff" d="M89.308 0H.692v24h88.616z"/></mask><g mask="url(#a)"><path fill="#0500ff" d="M40.957 5.675h4.23v2.37c1.386-2.13 2.981-2.37 5.317-2.37v4.187H49.44c-2.798 0-4.137 1.317-4.137 3.925v4.451h-4.346zM64.618 18.238h-4.344v-1.197c-.949 1.1-2.242 1.579-3.837 1.579-3.027 0-4.739-1.795-4.739-5.097V5.675h4.345v6.869c0 1.554.763 2.464 2.057 2.464 1.293 0 2.173-.886 2.173-2.392V5.675h4.345zM65.68 14.359h4.068c.186.91.81 1.292 2.311 1.292 1.226 0 1.942-.287 1.942-.813 0-.407-.346-.67-1.339-.886l-3.283-.743c-2.196-.501-3.306-1.77-3.306-3.805 0-2.681 1.964-4.068 5.779-4.068s5.686 1.352 6.01 4.248H73.82c-.07-.765-.856-1.232-2.15-1.232-1.039 0-1.708.334-1.708.837 0 .43.438.765 1.318.982l3.443.838c2.265.55 3.352 1.699 3.352 3.565 0 2.585-2.242 4.117-6.054 4.117s-6.334-1.652-6.334-4.333h-.007M89.645 9.583V5.675H78.92v3.91h3.2v8.653h4.323V9.583zM39.747 9.583V5.675H29.023v3.91h3.2v8.653h4.324V9.583zM.89 3.466 11.559 0v24C3.938 20.799.89 14.665.89 11.199z"/><path fill="url(#b)" d="M22.226 3.466 11.559 0v24c7.619-3.2 10.667-9.334 10.667-12.8z"/><path fill="url(#c)" d="M22.226 3.466 11.559 0v24c7.619-3.2 10.667-9.334 10.667-12.8z"/></g><defs><linearGradient id="b" x1="11.109" x2="19.84" y1="27.017" y2="-4.562" gradientUnits="userSpaceOnUse"><stop offset=".26" stop-color="#48ff91"/><stop offset=".66" stop-color="#0094ff"/><stop offset=".8" stop-color="#0038ff"/><stop offset=".89" stop-color="#0500ff"/></linearGradient><linearGradient id="c" x1="19.289" x2="11.232" y1="-1.357" y2="23.996" gradientUnits="userSpaceOnUse"><stop offset=".02" stop-color="#00f"/><stop offset=".08" stop-color="#0094ff"/><stop offset=".16" stop-color="#48ff91"/><stop offset=".42" stop-color="#0094ff"/><stop offset=".68" stop-color="#0038ff"/><stop offset=".9" stop-color="#0500ff"/></linearGradient></defs></svg>